<svg xmlns="http://www.w3.org/2000/svg" viewBox="0 0 128 128">
  <defs>
    <linearGradient id="bg" x1="18" y1="14" x2="112" y2="118" gradientUnits="userSpaceOnUse">
      <stop stop-color="#4C83FF"/>
      <stop offset="1" stop-color="#1F58DD"/>
    </linearGradient>
    <filter id="shadow" x="-20%" y="-20%" width="140%" height="140%">
      <feDropShadow dx="0" dy="5" stdDeviation="6" flood-color="#0E3EAF" flood-opacity=".28"/>
    </filter>
  </defs>
  <rect width="128" height="128" rx="30" fill="url(#bg)"/>
  <circle cx="64" cy="60" r="37" fill="#fff" filter="url(#shadow)"/>
  <path d="m64 41 12 9-5 14H56l-5-14 13-9Z" fill="#213052"/>
  <path d="m64 23 9 9-9 9-9-9 9-9Zm-34 26 13-3 8 4-4 13-14 2-3-16Zm68 0-13-3-9 4 5 13 14 2 3-16ZM42 82l5-19 9 1 8 15-10 11-12-8Zm44 0-5-19-10 1-7 15 10 11 12-8Z" fill="#DDE6F8"/>
  <path d="M37 88c7 7 16 11 27 11 10 0 20-4 27-11" fill="none" stroke="#fff" stroke-linecap="round" stroke-width="7"/>
  <circle cx="101" cy="25" r="9" fill="#25D47B" stroke="#fff" stroke-width="5"/>
</svg>
